<?xml version="1.0" standalone="no"?>
<!DOCTYPE svg PUBLIC "-//W3C//DTD SVG 20010904//EN"
 "http://www.w3.org/TR/2001/REC-SVG-20010904/DTD/svg10.dtd">
<svg version="1.0" xmlns="http://www.w3.org/2000/svg"
 width="512.000000pt" height="512.000000pt" viewBox="0 0 512.000000 512.000000"
 preserveAspectRatio="xMidYMid meet">
<metadata>
Created by potrace 1.11, written by Peter Selinger 2001-2013
</metadata>
<g transform="translate(0.000000,512.000000) scale(0.100000,-0.100000)"
fill="#000000" stroke="none">
<path d="M2726 4815 c-293 -42 -537 -165 -752 -379 -132 -132 -206 -241 -309
-451 -151 -307 -221 -608 -232 -990 -6 -226 4 -355 43 -513 91 -371 332 -643
651 -734 111 -32 305 -32 416 0 226 65 409 202 552 414 l56 83 -6 -90 c-29
-417 -83 -746 -165 -997 -124 -377 -292 -572 -540 -624 -195 -41 -372 25 -445
165 -53 103 -72 327 -39 460 20 81 69 189 117 262 l37 54 -58 29 c-51 27 -67
30 -152 31 -117 0 -164 -19 -249 -100 -114 -109 -168 -270 -158 -479 8 -189
63 -310 207 -457 67 -68 101 -94 161 -123 137 -65 210 -79 414 -79 214 -1 281
14 440 93 285 141 483 387 641 797 147 381 234 920 234 1453 0 186 -10 254
-46 317 -29 50 -70 77 -149 98 -61 15 -187 20 -244 9 l-32 -7 7 -126 c11 -213
-26 -405 -108 -564 -50 -96 -173 -230 -258 -282 -102 -62 -161 -78 -285 -78
-170 0 -265 42 -388 173 -159 168 -227 385 -227 722 0 201 11 313 50 508 70
348 193 626 381 860 198 246 417 354 657 322 124 -17 187 -45 257 -116 71 -71
100 -128 117 -226 23 -137 -19 -267 -122 -374 -109 -114 -263 -161 -445 -137
-47 7 -93 15 -102 18 -29 11 24 -54 81 -99 176 -140 455 -169 656 -68 86 43
190 145 234 229 84 160 95 372 31 562 -71 208 -260 373 -485 424 -102 23 -319
28 -444 10z"/>
</g>
</svg>
